<svg xmlns="http://www.w3.org/2000/svg" xmlns:xlink="http://www.w3.org/1999/xlink" width="111.047" height="112.431" viewBox="0 0 111.047 112.431"><defs><clipPath id="a"><rect width="111.047" height="112.431" fill="none"/></clipPath></defs><g transform="translate(-969 -3402.881)"><circle cx="55" cy="55" r="55" transform="translate(969 3403.881)" fill="#fff"/><g transform="translate(969 3402.881)" clip-path="url(#a)"><path d="M55.523,0C24.858,0,0,25.169,0,56.216s24.858,56.215,55.523,56.215,55.523-25.168,55.523-56.215S86.188,0,55.523,0m0,108.332C27.094,108.332,4.048,85,4.048,56.216S27.094,4.1,55.523,4.1,107,27.432,107,56.216s-23.046,52.116-51.475,52.116" fill="#00a8da"/><path d="M55.523,4.1C27.094,4.1,4.048,27.432,4.048,56.215s23.046,52.117,51.475,52.117S107,85,107,56.215,83.952,4.1,55.523,4.1m0,102.476c-27.47,0-49.74-22.547-49.74-50.36S28.053,5.856,55.523,5.856s49.74,22.546,49.74,50.359-22.27,50.36-49.74,50.36" fill="#0081cc"/><rect width="2.313" height="5.27" transform="translate(54.367 7.613)" fill="#00a8da"/><rect width="2.313" height="5.27" transform="translate(54.367 99.548)" fill="#00a8da"/><rect width="5.205" height="2.342" transform="translate(98.322 55.044)" fill="#00a8da"/><rect width="5.205" height="2.342" transform="translate(7.519 55.044)" fill="#00a8da"/><path d="M78.409,19.579l-1.988-1.2,2.663-4.529,1.987,1.2Z" fill="#00a8da"/><path d="M31.963,98.579l-1.988-1.2,2.663-4.529,1.987,1.2Z" fill="#00a8da"/><path d="M91.709,79.386l1.183-2.013,4.473,2.7-1.183,2.013Z" fill="#00a8da"/><path d="M13.682,32.362l1.183-2.013,4.473,2.7-1.183,2.013Z" fill="#00a8da"/><path d="M93.128,35.491l-1.161-2.026,4.5-2.644,1.161,2.026Z" fill="#00a8da"/><path d="M14.576,81.61l-1.161-2.026,4.5-2.644,1.161,2.026Z" fill="#00a8da"/><path d="M75.992,94.289l2-1.175L80.6,97.673l-2,1.175Z" fill="#00a8da"/><path d="M30.442,14.757l2-1.175,2.612,4.559-2,1.175Z" fill="#00a8da"/><path d="M58.973,59.5a3.76,3.76,0,1,1-3.759-3.806A3.783,3.783,0,0,1,58.973,59.5" fill="#00a8da"/><path d="M55.069,59.644h0a.868.868,0,0,1-.868-.868V18.936a.868.868,0,0,1,1.736,0V58.776a.868.868,0,0,1-.868.868" fill="#00a8da"/><path d="M82.213,77.668h0A.878.878,0,0,1,81,77.912L56.469,61.564a.878.878,0,1,1,.974-1.462L81.969,76.45a.878.878,0,0,1,.244,1.218" fill="#00a8da"/></g></g></svg>