<svg xmlns="http://www.w3.org/2000/svg" xmlns:xlink="http://www.w3.org/1999/xlink" width="63.032" height="49.878" viewBox="0 0 63.032 49.878"><defs><clipPath id="a"><rect width="63.032" height="49.878" transform="translate(0 0)" fill="#004d1c"/></clipPath></defs><g clip-path="url(#a)"><path d="M53.517,30.236H20.643a1,1,0,0,1,0-2H53.517a1.449,1.449,0,0,0,1.392-1.03l6.112-20A.229.229,0,0,0,60.8,6.91H19a1,1,0,0,1,0-2H60.8a2.227,2.227,0,0,1,2.13,2.879l-6.112,20a3.437,3.437,0,0,1-3.3,2.445" fill="#004d1c"/><path d="M55.334,38.829H24.925a3.438,3.438,0,0,1-3.311-2.461l-10-33.331A1.447,1.447,0,0,0,10.222,2H1A1,1,0,0,1,1,0h9.222a3.436,3.436,0,0,1,3.31,2.461l10,33.331a1.448,1.448,0,0,0,1.395,1.037H55.334a1,1,0,0,1,0,2" fill="#004d1c"/><path d="M23.089,49.878a4.692,4.692,0,1,1,4.691-4.692,4.7,4.7,0,0,1-4.691,4.692m0-7.384a2.692,2.692,0,1,0,2.691,2.692,2.7,2.7,0,0,0-2.691-2.692" fill="#004d1c"/><path d="M51.659,49.878a4.692,4.692,0,1,1,4.692-4.692,4.7,4.7,0,0,1-4.692,4.692m0-7.384a2.692,2.692,0,1,0,2.692,2.692,2.695,2.695,0,0,0-2.692-2.692" fill="#004d1c"/></g></svg>