<svg xmlns="http://www.w3.org/2000/svg" width="735.634" height="558.926" viewBox="0 0 735.634 558.926">
  <g id="그룹_79" data-name="그룹 79" transform="translate(8379.095 791.926)">
    <path id="logo" d="M1401.231,572.46V520.984h83.813V505.1h-83.812V487.538h42.891v-16.68h-70.463V453.065h161.967v17.792H1467.35v16.68h41.18v51.039H1424.7v16.11h88.975V572.46Zm-154.1,0V498.686h106.735V572.46Zm23.228-17.564h60.022V516.241h-60.022Zm60.423-122.645h-12.94v47.693l-22.609,8.126V366.309h22.609v44.946h12.94V366.309h22.885V479.944l-22.885,8.126Zm-64.064,38.388c-10.687-9.932-19.977-18.553-25.729-28.751-5.762,10.208-15.061,18.838-25.757,28.77l-4.212,3.916L1195.264,458.5l2.329-2.015c14-12.109,31.442-27.183,31.442-54.137V375.081h23.9V402.35c0,26.954,17.438,42.029,31.443,54.137l2.319,2.015-15.754,16.072Zm-228.569-22.373c-44.04,0-66.375-21-66.375-62.387V338.556H1115.35V305.547H971.771V270.856h72.042V236.764H925.183V203.023h256.085l.019,16.31a17.441,17.441,0,0,1-17.418,17.431H1083.2v34.092h72.07V372.943H1011.21l-.038,13.753c0,22.231,5.866,27.344,31.376,27.344h125.038v16.8a17.428,17.428,0,0,1-17.391,17.422Zm363.7-10.36V366.356H1507.91v71.549Zm23.494-17.783h59.091V384.348h-59.091Zm-137.019-68.974V236.764h-86.769V203.023H1415.58v16.319a17.427,17.427,0,0,1-17.391,17.422h-70.473V331.18a19.989,19.989,0,0,1-19.947,19.969Zm256.361-.675c-38.26,0-54.813-14.485-54.813-50.1V263.889h39.448l-.047,35.851c0,12.593,6.826,18.667,22.7,18.667h108.847v14.637a17.429,17.429,0,0,1-17.391,17.431Zm69.056-58.376V252.132l-58.939-.019V221.5h58.939V71.558h39.43l.019,200.572a19.983,19.983,0,0,1-19.947,19.969Zm-123.954-45.555V197.71h-63.893v-31.7H1596.98v14.266a17.429,17.429,0,0,1-17.4,17.422h-50.4v28.865a19.981,19.981,0,0,1-19.929,19.978ZM961.113,171.259V137.5H995.73V59.021H961.322V25.2h214.146V41.571a17.437,17.437,0,0,1-17.381,17.45H1135.24V137.5h38.308v16.348a17.421,17.421,0,0,1-17.4,17.412Zm74.531-33.76h58.4V59.021h-58.4Zm191.441,30.842V28.436h158.877V168.341Zm39.924-33.123h79.029V61.645H1267.01Zm174.041-54.755c0-37.638,27.621-66.93,70.9-66.93s70.91,29.293,70.91,66.93c0,37.618-27.62,66.9-70.91,66.9S1441.051,118.082,1441.051,80.463Zm39.306,0c0,17.707,11.923,30.785,31.623,30.785,19.672,0,31.586-13.078,31.586-30.785,0-17.735-11.914-30.832-31.586-30.832C1492.279,49.631,1480.356,62.728,1480.356,80.463Z" transform="translate(-9304.277 -805.46)" fill="#fff"/>
  </g>
</svg>
