<svg xmlns="http://www.w3.org/2000/svg" width="158.132" height="59.156" viewBox="0 0 158.132 59.156"><g transform="translate(-1099.999 6039.644)"><path d="M32.945,33.444V25.2H46.414V22.466H32.945V19.753h6.9V16.887H28.491V14.135H54.422v2.752h-11v2.866h6.618v8.167H36.574v2.772H50.868v2.752Zm-24.645,0V21.57h17V33.444Zm3.584-2.718h9.791V24.282H11.884ZM21.739,10.6H19.517v7.8l-.025,0-3.465,1.263V0h3.49V7.324h2.222V0h3.534V18.393l-.025,0-3.509,1.263Zm-9.716,6.84c-.2-.193-.4-.381-.6-.563a20.206,20.206,0,0,1-4.183-4.787,20.432,20.432,0,0,1-4.183,4.787c-.2.182-.4.371-.6.563l-.03.024L2.4,17.436,0,14.952l.312-.278C2.574,12.69,5.39,10.224,5.39,5.8V1.429h3.7V5.8c0,4.424,2.816,6.89,5.078,8.874l.312.278-2.425,2.509Zm21.15-5.919V.008H49.814V11.517ZM36.8,8.765h9.39V2.791H36.8Z" transform="translate(1203.708 -6031.69)" fill="#fff"/><path d="M15.447,59.156c-6.024,0-9.076-2.859-9.076-8.491v-6.44H26V39.732H6.371V35.016h9.854V30.374H0V25.786H35.016l0,2.215a2.378,2.378,0,0,1-2.383,2.373H21.61v4.643h9.854V48.9h-19.7l-.01,1.873c0,3.028.8,3.721,4.29,3.721h17.1v2.29a2.381,2.381,0,0,1-2.383,2.371Zm34.2-13.217V30.374H37.791V25.786H67.055V28a2.373,2.373,0,0,1-2.378,2.369H55.041v12.85a2.724,2.724,0,0,1-2.725,2.716Zm35.056-.1c-5.232,0-7.5-1.966-7.5-6.815V34.068h5.4l0,4.876c0,1.714.931,2.541,3.1,2.541h14.882v1.992a2.372,2.372,0,0,1-2.378,2.367ZM94.15,37.9V32.463h-8.06V28.3h8.06V7.9h5.39l0,27.289a2.73,2.73,0,0,1-2.73,2.72ZM77.2,31.705V25.062H68.462V20.746H91.856v1.943a2.373,2.373,0,0,1-2.378,2.369H82.586v3.929a2.721,2.721,0,0,1-2.725,2.718ZM4.915,21.461V16.869H9.646V6.191h-4.7v-4.6H34.224V3.818a2.377,2.377,0,0,1-2.378,2.373H28.724V16.869h5.237v2.223a2.377,2.377,0,0,1-2.378,2.369Zm10.191-4.592h7.986V6.191H15.105Zm26.178,4.195V2.031H63.008V21.064Zm5.459-4.5H57.548V6.548H46.743Zm23.8-7.452c0-5.121,3.775-9.109,9.7-9.109s9.7,3.988,9.7,9.109-3.78,9.1-9.7,9.1S70.538,14.226,70.538,9.109Zm5.375,0a4.322,4.322,0,0,0,8.64,0,4.322,4.322,0,0,0-8.64,0Z" transform="translate(1099.999 -6039.644)" fill="#fff"/></g></svg>