<svg xmlns="http://www.w3.org/2000/svg" xmlns:xlink="http://www.w3.org/1999/xlink" width="58.472" height="52.333" viewBox="0 0 58.472 52.333"><defs><clipPath id="a"><rect width="58.472" height="52.333" transform="translate(0 0)" fill="#005f9a"/></clipPath></defs><g transform="translate(0 0)"><g clip-path="url(#a)"><path d="M54.472,44.968H4a4,4,0,0,1-4-4V4A4,4,0,0,1,4,0H54.472a4,4,0,0,1,4,4V40.968a4,4,0,0,1-4,4M4,2A2,2,0,0,0,2,4V40.968a2,2,0,0,0,2,2H54.472a2,2,0,0,0,2-2V4a2,2,0,0,0-2-2Z" fill="#005f9a"/><path d="M35.374,52.333a1,1,0,0,1-1-1V44.422a1,1,0,0,1,2,0v6.911a1,1,0,0,1-1,1" fill="#005f9a"/><path d="M24.325,52.333a1,1,0,0,1-1-1V44.422a1,1,0,0,1,2,0v6.911a1,1,0,0,1-1,1" fill="#005f9a"/><path d="M40.284,52.333H19.415a1,1,0,0,1,0-2H40.284a1,1,0,0,1,0,2" fill="#005f9a"/><path d="M57.472,37.6H1a1,1,0,0,1,0-2H57.472a1,1,0,0,1,0,2" fill="#005f9a"/><path d="M31.691,41.285H28.007a1,1,0,0,1,0-2h3.684a1,1,0,1,1,0,2" fill="#005f9a"/><path d="M42.74,19.187H37.829a1,1,0,0,1,0-2H42.74a.229.229,0,0,0,.228-.228V14.5a.229.229,0,0,0-.228-.228H36.374a1,1,0,0,1,0-2H42.74A2.23,2.23,0,0,1,44.968,14.5v2.455a2.231,2.231,0,0,1-2.228,2.228" fill="#005f9a"/><path d="M20.643,19.187H15.732A2.231,2.231,0,0,1,13.5,16.959V14.5a2.23,2.23,0,0,1,2.228-2.228H25.781a1,1,0,0,1,0,2H15.732a.229.229,0,0,0-.228.228v2.455a.229.229,0,0,0,.228.228h4.911a1,1,0,0,1,0,2" fill="#005f9a"/><path d="M38.1,31.463H20.373a2.224,2.224,0,0,1-2.161-1.687L15.727,18.5a1,1,0,0,1,1.953-.431l2.479,11.245a.223.223,0,0,0,.214.145H38.1a.229.229,0,0,0,.221-.172l2.524-11.172a1,1,0,1,1,1.951.442l-2.53,11.193A2.232,2.232,0,0,1,38.1,31.463" fill="#005f9a"/><path d="M29.234,19.187a.988.988,0,0,1-.4-.087,1,1,0,0,1-.508-1.32L33.232,6.731a1,1,0,0,1,1.828.813L30.149,18.593a1,1,0,0,1-.915.594" fill="#005f9a"/><path d="M24.325,27.727a1,1,0,0,1-1-1V22.7a1,1,0,0,1,2,0v4.031a1,1,0,0,1-1,1" fill="#005f9a"/><path d="M29.235,27.727a1,1,0,0,1-1-1V22.7a1,1,0,0,1,2,0v4.031a1,1,0,0,1-1,1" fill="#005f9a"/><path d="M34.146,27.727a1,1,0,0,1-1-1V22.7a1,1,0,1,1,2,0v4.031a1,1,0,0,1-1,1" fill="#005f9a"/></g></g></svg>