<svg xmlns="http://www.w3.org/2000/svg" xmlns:xlink="http://www.w3.org/1999/xlink" width="27.113" height="23.771" viewBox="0 0 27.113 23.771"><defs><clipPath id="a"><rect width="27.113" height="23.771" fill="#fff" stroke="#fff" stroke-width="0.3"/></clipPath></defs><g clip-path="url(#a)"><path d="M25.112,17.877H9.848A2.377,2.377,0,0,1,7.54,16.019L4.624,2.684A2.015,2.015,0,0,0,2.667,1.109H.555A.555.555,0,0,1,.555,0H2.667a3.129,3.129,0,0,1,3.04,2.447L8.623,15.782a1.262,1.262,0,0,0,1.225.986H25.112a.555.555,0,1,1,0,1.109" fill="#fff" stroke="#fff" stroke-width="0.3"/><path d="M63.667,42.6H48.191a.555.555,0,0,1,0-1.109H63.667a1.7,1.7,0,0,0,1.667-1.385l1.073-5.755a1.206,1.206,0,0,0-1.186-1.428H46.251a.555.555,0,0,1,0-1.109H65.22a2.316,2.316,0,0,1,2.277,2.74l-1.073,5.755A2.807,2.807,0,0,1,63.667,42.6" transform="translate(-40.424 -28.144)" fill="#fff" stroke="#fff" stroke-width="0.3"/><path d="M78.155,172.393a2.194,2.194,0,1,1,2.194-2.194,2.2,2.2,0,0,1-2.194,2.194m0-3.279a1.085,1.085,0,1,0,1.085,1.085,1.086,1.086,0,0,0-1.085-1.085" transform="translate(-67.197 -148.622)" fill="#fff" stroke="#fff" stroke-width="0.3"/><path d="M170.576,172.393a2.194,2.194,0,1,1,2.194-2.194,2.2,2.2,0,0,1-2.194,2.194m0-3.279a1.085,1.085,0,1,0,1.084,1.085,1.086,1.086,0,0,0-1.084-1.085" transform="translate(-148.955 -148.622)" fill="#fff" stroke="#fff" stroke-width="0.3"/></g></svg>