<svg xmlns="http://www.w3.org/2000/svg" width="375" height="298.878" viewBox="0 0 375 298.878"><g transform="translate(-1206 -573.966)" fill="#bed730" style="mix-blend-mode:multiply;isolation:isolate"><path d="M 1575.019287109375 871.8436279296875 L 1207.000244140625 871.8436279296875 L 1207.000244140625 576.3906860351562 C 1208.164428710938 577.5046997070312 1209.919067382812 579.0969848632812 1212.287841796875 581.0173950195312 C 1216.559448242188 584.4805297851562 1223.722534179688 589.7051391601562 1233.58935546875 594.9290161132812 C 1244.668090820312 600.7944946289062 1256.833862304688 605.4674072265625 1269.748901367188 608.81787109375 C 1285.880737304688 613.0027465820312 1303.234130859375 615.1246948242188 1321.326904296875 615.1246948242188 C 1323.866943359375 615.1246948242188 1326.459594726562 615.0825805664062 1329.032592773438 614.9993896484375 C 1361.404052734375 613.953369140625 1385.676391601562 604.807861328125 1409.149658203125 595.9635009765625 C 1421.21826171875 591.4161987304688 1432.617553710938 587.1211547851562 1445.054443359375 583.8477783203125 C 1451.728149414062 582.0912475585938 1458.054077148438 580.802978515625 1464.393798828125 579.9093017578125 C 1471.49169921875 578.9088134765625 1478.440185546875 578.4224853515625 1485.636352539062 578.4224853515625 C 1489.75634765625 578.4224853515625 1493.987426757812 578.5895385742188 1498.212036132812 578.9191284179688 C 1513.03125 580.0755615234375 1526.559204101562 582.9801025390625 1538.420043945312 587.5521240234375 C 1547.895751953125 591.2047119140625 1556.335205078125 595.9241333007812 1563.504028320312 601.5792236328125 C 1569.87939453125 606.6083374023438 1574.050048828125 611.463134765625 1576.426025390625 614.6502075195312 C 1578.569091796875 617.5247802734375 1579.677490234375 619.59619140625 1579.995239257812 620.2237548828125 L 1575.019287109375 871.8436279296875 Z" stroke="none"/><path d="M 1208.000244140625 578.6785278320312 L 1208.000244140625 870.8436279296875 L 1574.038818359375 870.8436279296875 L 1578.990478515625 620.455810546875 C 1578.044067382812 618.6522827148438 1573.54296875 610.8006591796875 1562.990600585938 602.4479370117188 C 1555.901245117188 596.8363647460938 1547.544555664062 592.1505737304688 1538.152709960938 588.520751953125 C 1526.359741210938 583.9629516601562 1512.895629882812 581.0679321289062 1498.134155273438 579.9160766601562 C 1493.934204101562 579.58837890625 1489.729248046875 579.4222412109375 1485.636352539062 579.42236328125 C 1478.487670898438 579.4226684570312 1471.5849609375 579.9059448242188 1464.534057617188 580.9000854492188 C 1458.233520507812 581.7882690429688 1451.9453125 583.0690307617188 1445.31005859375 584.8154296875 C 1432.923095703125 588.0757446289062 1421.547607421875 592.3617553710938 1409.504150390625 596.8994750976562 C 1385.954223632812 605.7723388671875 1361.6025390625 614.9474487304688 1329.064819335938 615.9988403320312 C 1326.480590820312 616.0823364257812 1323.877075195312 616.1246337890625 1321.326904296875 616.1246337890625 C 1303.1494140625 616.1246337890625 1285.711547851562 613.991943359375 1269.497802734375 609.7857666015625 C 1256.507568359375 606.4158325195312 1244.268798828125 601.7146606445312 1233.121459960938 595.8128662109375 C 1223.183349609375 590.55126953125 1215.96435546875 585.2852783203125 1211.658081054688 581.7942504882812 C 1210.218139648438 580.6267700195312 1209 579.57666015625 1208.000244140625 578.6785278320312 M 1206.000244140625 573.9658813476562 C 1206.000244140625 573.9658813476562 1242.376831054688 614.1246337890625 1321.326904296875 614.1246337890625 C 1323.842895507812 614.1246337890625 1326.397583007812 614.083984375 1329.000244140625 613.9998779296875 C 1393.654907226562 611.91064453125 1425.6328125 577.4247436523438 1485.63623046875 577.4224243164062 C 1489.719970703125 577.4222412109375 1493.927368164062 577.581787109375 1498.289794921875 577.9221801757812 C 1563.855346679688 583.038330078125 1580.999877929688 620.000244140625 1580.999877929688 620.000244140625 L 1575.999633789062 872.8436279296875 L 1206.000244140625 872.8436279296875 L 1206.000244140625 573.9658813476562 Z" stroke="none" fill="#bed730"/></g></svg>