<svg xmlns="http://www.w3.org/2000/svg" xmlns:xlink="http://www.w3.org/1999/xlink" width="194" height="172" viewBox="0 0 194 172"><defs><clipPath id="a"><rect width="194" height="172" transform="translate(0.897 -0.07)" fill="none" stroke="#03542c" stroke-width="3"/></clipPath></defs><g transform="translate(-1219 -5634)"><text transform="translate(1324 5761)" fill="#03542c" font-size="36" font-family="Lato-Black, Lato" font-weight="800"><tspan x="-31.533" y="0">20</tspan><tspan y="0" font-size="26" font-family="Lato-Bold, Lato" font-weight="700">%</tspan></text><g transform="translate(0 -11)"><path d="M142.481,132.108l5.926-20.908H134.333L160.266,81l-5.084,20.908h14.073Z" transform="translate(1164.167 5601.371)" fill="#8dc63f" stroke="#8dc63f" stroke-linecap="round" stroke-linejoin="round" stroke-width="3"/><g transform="translate(1218.103 5645.07)" clip-path="url(#a)"><path d="M61.725,182.894a60.886,60.886,0,0,1-20.169-45.339H53.764L37.486,105,9,137.556H21.208a81.391,81.391,0,0,0,143.918,52.1" transform="translate(-4.622 -51.758)" fill="none" stroke="#03542c" stroke-linecap="round" stroke-linejoin="round" stroke-width="3"/><path d="M173.267,45.05a60.886,60.886,0,0,1,20.169,45.339H181.228l16.278,32.556,28.486-32.556H213.784A81.391,81.391,0,0,0,69.648,38.549" transform="translate(-34.42 -4.591)" fill="none" stroke="#03542c" stroke-linecap="round" stroke-linejoin="round" stroke-width="3"/></g></g></g></svg>